<svg id="Группа_2" data-name="Группа 2" xmlns="http://www.w3.org/2000/svg" width="88" height="88" viewBox="0 0 88 88">
  <defs>
    <style>
      .cls-1 {
        fill: #fbfaf6;
      }

      .cls-2 {
        fill: #828c8e;
        fill-rule: evenodd;
      }
    </style>
  </defs>
  <circle class="cls-1" cx="44" cy="44" r="44"/>
  <path id="photo" class="cls-2" d="M696.5,4556h-33a6,6,0,0,0-6,6v36a6,6,0,0,0,6,6h33a6,6,0,0,0,6-6v-36A6,6,0,0,0,696.5,4556Zm3,42a3.006,3.006,0,0,1-3,3h-33a3.006,3.006,0,0,1-3-3v-36a3.006,3.006,0,0,1,3-3h33a3.006,3.006,0,0,1,3,3v36Zm-4.5-36H665a1.5,1.5,0,0,0-1.5,1.5v27a1.5,1.5,0,0,0,1.5,1.5h30a1.5,1.5,0,0,0,1.5-1.5v-27A1.5,1.5,0,0,0,695,4562Zm0,1.5v20.8l-4.875-5.29a1.5,1.5,0,0,0-2.25,0l-3.9,4.42-11.846-13.42a1.5,1.5,0,0,0-2.25,0L665,4575.63V4563.5h30Zm-30,14.4,6-6.9,12.1,13.71,0.87,0.99,4.142,4.8H665v-12.6Zm25.112,12.6-5.142-5.93L689,4580l6,6.57v3.93h-4.888Zm-4.112-15a4.5,4.5,0,1,0-4.5-4.5A4.5,4.5,0,0,0,686,4575.5Zm0-7.5a3,3,0,1,1-3,3A3.006,3.006,0,0,1,686,4568Z" transform="translate(-636 -4536)"/>
</svg>
