<svg id="Группа_3" data-name="Группа 3" xmlns="http://www.w3.org/2000/svg" width="300" height="300" viewBox="0 0 300 300">
  <defs>
    <style>
      .cls-1, .cls-2 {
        fill: #d45244;
      }

      .cls-2 {
        fill-opacity: 0;
        stroke: #f5eee3;
        stroke-linejoin: round;
        stroke-width: 8px;
      }

      .cls-3 {
        fill: #f5eee3;
        fill-rule: evenodd;
      }
    </style>
  </defs>
  <circle class="cls-1" cx="150" cy="150" r="150"/>
  <circle id="Ellipse_3_copy" data-name="Ellipse 3 copy" class="cls-2" cx="150" cy="150" r="142"/>
  <path id="t-shirt" class="cls-3" d="M1719.98,2638.62l-26.55-21.29a10.587,10.587,0,0,0-6.63-2.33h-95.59a10.594,10.594,0,0,0-6.64,2.33l-26.55,21.29a10.645,10.645,0,0,0-3.44,11.68l10.62,31.92a10.574,10.574,0,0,0,6.63,6.7,10.442,10.442,0,0,0,3.44.58,10.59,10.59,0,0,0,5.31-1.42v65.28a10.64,10.64,0,0,0,10.63,10.64h95.59a10.637,10.637,0,0,0,10.62-10.64v-65.28a10.59,10.59,0,0,0,5.31,1.42,10.442,10.442,0,0,0,3.44-.58,10.574,10.574,0,0,0,6.63-6.7l10.62-31.92A10.645,10.645,0,0,0,1719.98,2638.62Zm-61.04-12.98c-2.93,6.18-10.72,10.65-19.94,10.65s-17-4.47-19.94-10.65h39.88Zm43.79,53.22-15.93-10.65v85.15h-95.59v-85.15l-15.94,10.65-10.62-31.93,26.56-21.29h22.18c2.96,9.16,13.25,15.97,25.61,15.97s22.65-6.81,25.61-15.97h22.19l26.55,21.29Z" transform="translate(-1490 -2540)"/>
</svg>
